<svg width="24" height="24" viewBox="0 0 24 24" fill="none" xmlns="http://www.w3.org/2000/svg">
<g clip-path="url(#clip0_1_83)">
<path fill-rule="evenodd" clip-rule="evenodd" d="M21.3624 14.7576C21.3624 14.7576 23.3028 16.674 23.7828 17.5608C23.7922 17.5736 23.7995 17.5878 23.8044 17.6028C24 17.9304 24.048 18.1872 23.952 18.3768C23.79 18.69 23.2416 18.8472 23.0556 18.8604H19.626C19.3872 18.8604 18.8904 18.798 18.2856 18.3804C17.8236 18.0576 17.364 17.526 16.9188 17.0064C16.254 16.2348 15.6792 15.5652 15.0972 15.5652C15.0237 15.565 14.9507 15.5772 14.8812 15.6012C14.4408 15.7404 13.8816 16.368 13.8816 18.0396C13.8816 18.5628 13.4688 18.8604 13.1796 18.8604H11.6088C11.0736 18.8604 8.28722 18.6732 5.81642 16.068C2.78882 12.8784 0.0696241 6.47999 0.0432241 6.42359C-0.125976 6.00959 0.229224 5.78399 0.613224 5.78399H4.07642C4.54082 5.78399 4.69202 6.06479 4.79762 6.31679C4.92002 6.60599 5.37362 7.76279 6.11762 9.06239C7.32242 11.1768 8.06282 12.0372 8.65442 12.0372C8.76557 12.0375 8.87484 12.0085 8.97122 11.9532C9.74402 11.5284 9.60002 8.76839 9.56402 8.19959C9.56402 8.08919 9.56282 6.96719 9.16682 6.42479C8.88362 6.03599 8.40122 5.88479 8.10962 5.82959C8.18762 5.71679 8.35322 5.54399 8.56562 5.44199C9.09482 5.17799 10.0512 5.13959 11.0004 5.13959H11.5272C12.5568 5.15399 12.8232 5.21999 13.1976 5.31479C13.9512 5.49479 13.9656 5.98319 13.8996 7.64639C13.8804 8.12159 13.86 8.65679 13.86 9.28679C13.86 9.42119 13.854 9.57119 13.854 9.72359C13.8312 10.5768 13.8012 11.538 14.4036 11.9328C14.4818 11.9815 14.572 12.0072 14.664 12.0072C14.8728 12.0072 15.498 12.0072 17.1936 9.09719C17.9376 7.81199 18.5136 6.29639 18.5532 6.18239C18.5868 6.11879 18.6876 5.93999 18.81 5.86799C18.8971 5.82166 18.9946 5.79852 19.0932 5.80079H23.1672C23.6112 5.80079 23.9124 5.86799 23.9712 6.03599C24.0696 6.30839 23.952 7.13999 22.092 9.65519C21.7788 10.074 21.504 10.4364 21.2628 10.7532C19.5768 12.966 19.5768 13.0776 21.3624 14.7576V14.7576Z" fill="#4FBFA5"/>
</g>
<defs>
<clipPath id="clip0_1_83">
<rect width="24" height="24" fill="white"/>
</clipPath>
</defs>
</svg>
