<svg width="24" height="24" viewBox="0 0 24 24" fill="none" xmlns="http://www.w3.org/2000/svg">
<path d="M22.0575 6.94502C21.938 6.50105 21.704 6.09626 21.3789 5.77115C21.0538 5.44604 20.649 5.21203 20.205 5.09252C18.57 4.65002 12 4.65002 12 4.65002C12 4.65002 5.43 4.65002 3.795 5.09252C3.35103 5.21203 2.94623 5.44604 2.62113 5.77115C2.29602 6.09626 2.062 6.50105 1.9425 6.94502C1.63721 8.61247 1.48906 10.3049 1.5 12C1.48906 13.6952 1.63721 15.3876 1.9425 17.055C2.062 17.499 2.29602 17.9038 2.62113 18.2289C2.94623 18.554 3.35103 18.788 3.795 18.9075C5.43 19.35 12 19.35 12 19.35C12 19.35 18.57 19.35 20.205 18.9075C20.649 18.788 21.0538 18.554 21.3789 18.2289C21.704 17.9038 21.938 17.499 22.0575 17.055C22.3628 15.3876 22.5109 13.6952 22.5 12C22.5109 10.3049 22.3628 8.61247 22.0575 6.94502ZM9.9 15.15V8.85002L15.3525 12L9.9 15.15Z" fill="#4FBFA5"/>
</svg>
